# xmcd CD database file
#
# Track frame offsets:
#	150
#	42430
#	76155
#	111800
#	136272
#	160585
#	186262
#	212790
#	240555
#	267650
#
# Disc length: 3910 seconds
#
# Revision: 1
# Processed by: cddbd v1.5.1PL2 Copyright (c) Steve Scherf et al.
# Submitted via: CDex 1.51
#
DISCID=860f440a
DTITLE=Miles Davis - Elegy for Miles Davis
DYEAR=2001
DGENRE=Jazz
TTITLE0=Bag's Groove
TTITLE1=Just Squeeze Me
TTITLE2=I'll Remember April
TTITLE3=It's Only a Paper Moon
TTITLE4='Round Midnight
TTITLE5=No Line
TTITLE6=Oleo
TTITLE7=Salt Peanuts
TTITLE8=My Funny Valentine
TTITLE9=In Your Own Sweet Way
EXTD=YEAR: 2001
EXTT0=
EXTT1=
EXTT2=
EXTT3=
EXTT4=
EXTT5=
EXTT6=
EXTT7=
EXTT8=
EXTT9=
PLAYORDER=
